PathFileType	4	(X/Y/Z)	OpenSim_Sub04_EMGBaseline_Accel.trc
DataRate	CameraRate	NumFrames	NumMarkers	Units	OrigDataRate	OrigDataStartFrame	OrigNumFrames
100	100	41	8	m	100	4964	7941
Frame#	Time	torso_imu_offset_imu	pelvis_imu_offset_imu	tibia_r_imu_offset_imu	femur_r_imu_offset_imu	tibia_l_imu_offset_imu	femur_l_imu_offset_imu	toes_r_imu_offset_imu	toes_l_imu_offset_imu
				X1	Y1	Z1	X2	Y2	Z2	X3	Y3	Z3	X4	Y4	Z4	X5	Y5	Z5	X6	Y6	Z6	X7	Y7	Z7	X8		Y8	Z8	

4964	49.63000000	-7.24419990	0.31001330	8.04283504	8.84278775	1.46669570	3.23694710	8.99190030	3.08961269	0.35475107	8.18354941	-2.68037303	-0.95491133	8.60920152	-5.46964444	1.28112375	8.41805542	1.42694736	-0.50117409	6.19267557	-1.55054050	7.52196097	7.40543839	2.42624926	12.15764382
4965	49.64000000	-7.34237995	0.34096957	8.09026872	8.83556955	1.79532533	3.13957019	9.07834347	3.02435070	0.41993333	8.27805466	-2.62422618	-0.80430891	9.34267428	-7.39324737	-0.17686051	8.22901100	1.42302147	-0.53766789	6.20952284	-1.49133852	7.62570980	8.96007027	1.99998786	13.03686099
4966	49.65000000	-7.42930799	0.38020277	8.11998576	8.87083259	2.05836746	3.03694499	9.15753635	2.94088945	0.48229868	8.50800494	-2.54000129	-0.65443438	9.48379758	-8.53070385	-0.95118094	7.99386155	1.78748553	-0.53700327	6.05625493	-1.56596274	7.76401571	11.74135955	2.55841665	13.93580936
4967	49.66000000	-7.41021636	0.49769919	8.19451347	8.88859475	2.22373822	3.01101478	9.13319308	3.01961562	0.69115376	8.76632109	-2.47564924	-0.61243863	9.40476545	-8.75911685	-0.44568066	8.07577066	1.74919630	-0.21780039	6.02064425	-1.35180600	7.93640780	11.90676753	4.13200575	13.85320900
4968	49.67000000	-7.56612598	0.46742666	8.31213296	8.90427315	2.41181217	3.00931581	9.20943496	3.31282215	0.92609438	9.13997680	-2.54356526	-0.64299535	9.33010743	-8.36795001	0.14004278	8.24422467	1.88529634	0.17583271	5.90692471	-1.29204862	8.07240488	10.63093259	4.55489193	12.88459015
4969	49.68000000	-7.74413568	0.42387959	8.43690664	8.95743173	2.41456288	3.00359959	9.37471816	3.61706032	1.16984893	9.45853394	-2.60658182	-0.74261371	9.45800093	-7.43514479	0.50801195	8.18876339	2.27563649	0.33838810	6.42031965	-0.88938611	7.82250159	10.20579643	3.69083708	11.67218748
4970	49.69000000	-7.87637290	0.47504430	8.53495666	9.01620140	2.40106773	2.95293517	9.55496809	3.84359450	1.26005397	9.70079558	-2.58176436	-0.78523381	9.65333094	-6.46374620	1.07314893	8.26246047	2.29326883	0.40039344	5.92665288	-0.93522347	8.25746005	10.54664440	2.68702333	10.72244109
4971	49.70000000	-7.87182256	0.46736803	8.55821641	8.98670892	2.33721438	2.98089574	9.78222354	3.88253840	1.42718740	9.73099107	-2.46356509	-0.62075163	9.64226383	-5.55587515	1.41398091	8.40343249	2.51355810	0.48847079	5.84181536	-1.15686737	8.33664761	11.90592668	2.07333925	10.43560940
4972	49.71000000	-7.84867507	0.55564339	8.62364878	8.94604432	2.28210426	2.90197706	9.89412253	3.66629441	1.13939626	9.66580426	-2.15856757	-0.38279322	9.41742095	-4.42985653	1.31558495	8.61456304	2.65208400	0.62859445	5.94424192	-1.11162536	8.26747051	14.79755639	2.41258737	10.60207560
4973	49.72000000	-7.81703166	0.60140147	8.62250110	8.99213345	2.20084707	2.83813639	9.83646324	3.48567704	1.11933733	9.61284530	-1.84229051	-0.21021866	9.61803159	-3.16325222	1.09236162	8.64455914	2.84985273	0.77095915	5.95736993	-1.17174911	8.16484126	18.09838271	3.01485854	10.64518967
4974	49.73000000	-7.79839802	0.61338172	8.56931130	9.06974153	2.19815123	2.86211040	9.75279419	3.41921176	0.94727390	9.67131264	-1.56925087	-0.16021591	10.48667697	-1.93236547	1.24370373	8.65784062	2.88031160	0.78785820	6.25486477	-0.96771497	8.13321745	20.37165059	2.05424500	10.50121717
4975	49.74000000	-7.75102665	0.64763128	8.59220206	9.18661796	2.26782133	2.93528242	9.64519604	3.55505115	0.79504209	9.68862008	-1.48727597	-0.25290455	11.59126577	-0.93427642	1.65493026	8.64314714	2.90317164	0.64378357	5.98606602	-1.17269607	8.10168843	21.63501931	0.56994367	9.83455362
4976	49.75000000	-7.78874891	0.69257665	8.66893389	9.50479253	2.36256106	3.04021293	9.73365966	3.45143978	0.83661071	9.70049028	-1.63432870	-0.47424728	12.41912223	0.08029459	2.00134563	8.80368527	3.14118266	0.60717272	5.82982194	-1.14200032	8.16971613	21.70846797	1.19016103	8.34844807
4977	49.76000000	-7.86672284	0.68905585	8.77211811	9.49041610	2.18762715	3.15856108	9.85635638	3.31791994	1.06834290	9.62836329	-1.86470782	-0.69125923	12.45208786	0.34992189	2.59021670	8.83905603	3.70194005	0.47997867	5.86421428	-0.49319088	8.42195837	20.06275574	3.24073314	6.46415285
4978	49.77000000	-7.90753991	0.70911337	8.88131999	9.59978164	2.05078991	3.21227942	9.88609400	3.21848039	1.31528609	9.58735990	-2.07108578	-0.81824502	11.60187090	-0.45731620	2.74826846	8.76366818	4.32483659	0.10622895	5.89555887	0.02234390	8.65528621	16.69213178	3.57833780	3.89965813
4979	49.78000000	-7.92087579	0.68336181	8.92132861	9.61158833	1.84885534	3.17539779	9.93861771	3.10991596	1.47809322	9.70307151	-2.13379545	-0.85872067	10.16779890	-1.51597046	2.37253150	8.47512029	4.78912735	-0.24917550	6.20434338	-1.26155483	7.99613596	14.60382307	2.16283050	1.40150645
4980	49.79000000	-7.88798156	0.70036034	8.94272850	9.55981189	1.72898807	3.12240966	10.11018995	2.80682942	1.57664712	9.81456426	-2.05581805	-0.82734018	8.92780911	-1.47760543	1.92967665	8.21563318	4.95252164	-0.51617318	6.05083861	-0.26589093	8.54448616	14.95938298	-0.33526416	-0.64085262
4981	49.80000000	-7.78464573	0.65078098	8.98267729	9.46458328	1.70359738	3.03502534	10.17701713	2.69466258	1.57672798	9.84078359	-1.94429499	-0.72185214	8.35553727	-0.05630492	1.81015859	8.30073663	4.87139361	-0.62768099	6.16144968	-0.64581944	8.11701840	15.85560506	-2.10038346	-2.06220162
4982	49.81000000	-7.69438577	0.69107576	8.93372131	9.31491524	1.66727019	2.93896049	10.12712738	2.70850629	1.50969061	9.66363199	-2.04672229	-0.70425413	8.51671105	1.47479375	1.91816889	8.59658230	4.83789077	-0.51212225	6.25851622	-0.36322946	8.20153940	16.77951647	-2.24093186	-2.97787763
4983	49.82000000	-7.60371255	0.72154562	8.96764896	9.22603421	1.67219562	2.82606287	10.00075753	2.90283346	1.39274471	9.45881772	-2.41935819	-0.78331521	8.69735640	1.96706122	1.78310921	8.84494589	4.92537733	-0.12927456	6.40732566	-0.27902870	8.22432337	16.33214632	-1.08807844	-3.55883653
4984	49.83000000	-7.51089582	0.74071834	8.89328162	9.08440469	1.63878230	2.60690933	9.82555945	3.11997888	1.46136115	9.23789354	-2.96997689	-0.85314594	8.42707661	0.86664843	1.45672112	9.05023982	5.14893135	0.41524106	6.32741966	-0.42072493	8.14820478	14.27802743	0.23866891	-3.63857952
4985	49.84000000	-7.45048349	0.72241651	8.80323181	8.93913903	1.51095091	2.38412586	9.64245106	3.18782702	1.32333187	9.08182914	-3.46942183	-0.92178543	7.84744075	-0.75051584	0.87139793	9.01792556	5.17829111	0.82229888	6.42494721	-0.39462168	8.06731415	14.06519169	2.86330719	-1.85531997
4986	49.85000000	-7.43072964	0.77491371	8.75910687	8.84103127	1.53982958	2.25334276	9.52038334	3.05094882	1.26095190	8.81978257	-3.81874856	-0.87920302	7.59285816	-1.64930542	0.26778289	8.75367969	4.83683857	1.02138813	6.50182579	-0.71760611	7.89908522	12.52660793	5.38812617	-1.16051277
4987	49.86000000	-7.53760764	0.77235028	8.75827724	8.83348949	1.63138904	2.26327843	9.55981439	2.87306104	1.02386846	8.60118096	-3.91563664	-0.75115520	8.06681671	-1.98473451	-0.31398174	8.54434723	4.35982799	0.83852160	6.88735427	-0.78672387	7.82907319	5.57941026	-0.94219671	-2.10982317
4988	49.87000000	-7.84963096	0.72792036	8.81028459	8.93724638	1.64026414	2.29778128	9.74546590	2.76211819	0.90775779	8.65315567	-4.01850607	-0.70472209	9.09205546	-1.66260083	-0.97382465	8.42978836	3.96744758	0.42423105	6.58267534	-1.12041606	8.01694434	8.11810564	5.27697414	15.55107324
4989	49.88000000	-8.11384690	0.61836952	8.84738052	9.15058296	1.83084766	2.46926653	10.21509795	2.71461142	1.12530023	8.91795734	-4.07949400	-0.73775884	10.45617952	-1.71255413	-0.91386245	8.71040045	3.30708942	-0.03275779	6.60382390	-1.43153919	8.10974019	0.52788171	11.50273982	19.15028432
4990	49.89000000	-8.41175081	0.50503094	8.97298041	9.36269181	1.82875885	2.97283818	10.77159074	2.84427545	1.03996459	9.26669209	-4.23452324	-0.73203579	11.74256543	-1.52619966	0.61826537	9.37044524	2.72754729	-0.53145705	6.81635013	-1.41018478	8.19297871	-0.62759728	-0.20737026	12.26055204
4991	49.90000000	-8.61229188	0.34462976	9.07454482	9.65435180	1.70554851	3.27022453	11.30906489	2.76453477	1.69401781	9.65343081	-4.29570390	-0.75964436	11.79074199	0.22423309	2.80043334	10.15004572	1.95912106	-0.89385281	6.83831484	-1.78639075	8.22510782	2.27674280	-4.30982714	11.51315460
4992	49.91000000	-8.60978513	0.20567259	9.06803575	9.94884487	1.44150652	3.59654254	11.86365260	2.56205644	2.40715263	9.91155063	-4.24918975	-0.57100621	12.27052035	1.80510683	3.95785179	11.14985798	1.46048853	-0.74762230	6.49134175	-1.33037548	8.69802016	6.60686977	-3.45734160	13.90415991
4993	49.92000000	-8.64400240	0.16046343	9.19676781	9.96321172	1.08351294	4.06989681	12.34100570	2.29867219	2.82163402	10.19343653	-4.19459837	-0.36431115	13.16860459	1.84549183	5.17419749	12.43151578	0.79225779	-0.36546334	6.78721560	-1.45342207	8.52835895	6.59948926	-1.59742927	14.60047438
4994	49.93000000	-8.94262677	0.16524235	9.27877085	10.04624529	0.65258751	4.56094773	12.86367431	1.86930930	3.40767268	10.37478479	-4.30974353	-0.19449769	13.14537496	-0.16338702	4.96533832	13.76068550	0.19828887	-0.47571085	6.34236127	-1.15167640	9.18395385	6.87478397	0.79205231	13.12897055
4995	49.94000000	-9.20948967	0.09914511	9.36282097	10.10740142	0.08850614	4.99248060	13.46412039	1.46079176	3.71237560	10.40225019	-4.59902150	0.07068475	12.23482904	-1.94528485	3.96170888	14.27667590	0.36959569	-0.98284604	7.00442200	-1.22678850	9.12379388	8.08982977	6.84384834	12.82369001
4996	49.95000000	-9.19919146	-0.03733618	9.28796141	10.25889701	-0.46082743	5.38009758	13.91559501	1.33288952	3.83194699	10.49558093	-4.67233143	0.46846366	11.15761617	-2.61855296	1.94200184	13.75612709	1.00873798	-1.19199693	6.92777302	-1.63935869	9.14412741	10.27250499	12.37371543	14.02326494
4997	49.96000000	-9.10675176	-0.31536691	9.13960298	10.27795125	-0.96698741	5.66913863	14.13429054	1.30743999	2.79572097	10.52604036	-4.59646431	0.89785717	10.67709968	-2.11715096	0.00948586	12.80238221	1.88293925	-1.35039392	6.36022449	-2.13558180	9.01532300	9.67381463	5.77767364	11.12294303
4998	49.97000000	-9.10889288	-0.46072659	9.07556369	10.36256732	-1.48703076	5.50860893	14.18029610	1.41816343	1.54899270	10.53119456	-4.28232604	1.11718007	10.94429002	-1.48135558	-0.51734183	11.33640973	2.69331904	-1.59402889	8.25304400	-2.25982205	8.95776596	7.83251910	2.52002943	11.87459796
4999	49.98000000	-8.83919833	-0.54196082	8.83543076	10.10462653	-1.74815570	5.14841136	13.66512614	1.89161589	0.86809886	10.46725655	-3.65054240	1.03179257	11.10331555	-1.23120377	-1.15226446	9.80288286	2.82371582	-2.11745206	9.95943300	-3.27284692	8.53073633	8.85582013	0.29842113	12.88677838
5000	49.99000000	-8.43255982	-0.70689293	8.37819384	9.54931517	-1.61060079	4.94317226	12.60109439	2.79708353	-0.34889280	10.31762808	-2.84969431	0.80255299	10.70756838	-1.80678984	-1.51789895	8.65547593	2.30679233	-2.45968540	15.37938575	-2.46220949	8.51458683	8.29596456	0.86418053	12.42259523
5001	50	-8.15846106	-0.78550888	7.95773607	8.98547956	-1.37423632	4.80998237	11.22969181	4.32513138	-1.28669238	10.14913202	-2.04778145	0.51983810	9.83420754	-2.98567528	-2.01454303	8.33174515	1.31588983	-2.43639123	18.99212594	0.60635284	9.78548073	4.03489929	3.60765329	11.70412284
5002	50.01000000	-8.21407538	-0.92183828	7.77420468	8.51503032	-1.00812167	4.65097785	9.88863574	6.11679302	-1.12964179	10.02662621	-1.41762620	0.42094505	9.12677998	-4.06894856	-2.28454294	8.54138525	0.33063159	-2.49882583	13.83131566	-1.81644159	7.83859383	6.18680639	3.65740152	11.15974925
5003	50.02000000	-8.28440453	-0.97077692	7.75610945	8.22860012	-0.51673755	4.54348449	8.89426285	7.90254992	-0.44705228	10.09633058	-0.92976528	0.36077323	8.87664014	-5.06237869	-1.61323404	8.81672267	-0.25096551	-2.79631610	14.28743170	-5.18679657	7.48305806	7.25924165	2.86364187	9.62271828
5004	50.03000000	-8.20224613	-1.11027399	7.61243784	8.25623967	-0.05439847	4.46377373	7.99327262	9.05762671	-0.48837081	10.22439239	-0.72989461	0.44574162	8.87952029	-5.79061420	-1.61865016	8.85745206	-0.93617451	-3.36601653	13.80666693	-5.00385379	7.03815329	5.56136549	3.71961798	11.04279819
